<?xml version="1.0" standalone="no"?>
<!DOCTYPE svg PUBLIC "-//W3C//DTD SVG 20010904//EN"
 "http://www.w3.org/TR/2001/REC-SVG-20010904/DTD/svg10.dtd">
<svg version="1.0" xmlns="http://www.w3.org/2000/svg"
 width="1000.000000pt" height="300.000000pt" viewBox="0 0 1000.000000 300.000000"
 preserveAspectRatio="xMidYMid meet">
<metadata>
Created by potrace 1.16, written by Peter Selinger 2001-2019
</metadata>
<g transform="translate(0.000000,300.000000) scale(0.100000,-0.100000)"
fill="#000000" stroke="none">
<path d="M7629 2532 c-175 -141 -609 -620 -841 -927 -130 -172 -168 -248 -133
-261 12 -5 40 16 103 78 156 153 275 248 311 248 6 0 2 -22 -9 -50 -40 -101
-19 -160 56 -160 37 0 145 32 219 65 l51 22 -4 -28 c-3 -23 1 -31 21 -40 33
-15 105 18 233 106 52 36 96 65 99 65 3 0 -4 -18 -15 -40 -41 -81 -15 -140 61
-140 48 0 165 38 250 80 l60 31 -26 -41 c-53 -84 -7 -106 76 -38 179 146 215
173 266 204 31 19 60 34 65 34 18 0 6 -29 -47 -115 -56 -92 -68 -135 -39 -135
9 0 59 25 112 55 53 30 100 55 104 55 4 0 5 -20 1 -45 -8 -58 6 -75 63 -75 53
0 126 31 232 99 93 60 112 78 89 86 -8 4 -52 -18 -103 -51 -94 -61 -184 -103
-221 -104 -20 0 -22 6 -25 58 -3 54 -4 57 -31 60 -18 2 -54 -11 -103 -37 -42
-23 -77 -41 -80 -41 -2 0 16 31 41 68 67 105 69 152 6 152 -47 0 -96 -32 -326
-217 l-59 -48 31 45 c17 25 57 73 88 107 44 49 53 64 41 69 -10 4 -34 -10 -66
-39 -87 -78 -304 -177 -389 -177 -72 0 -72 39 -1 151 17 25 30 51 30 57 0 19
-39 14 -72 -9 -22 -16 -32 -19 -41 -10 -26 26 -95 12 -194 -41 -228 -120 -323
-158 -393 -158 -53 0 -58 15 -31 89 28 78 28 109 -3 117 -46 11 -141 -54 -300
-206 -93 -88 -91 -80 16 62 44 58 80 92 152 142 163 114 315 243 487 415 284
284 389 457 287 469 -19 2 -45 -13 -99 -56z m101 6 c-1 -62 -224 -321 -455
-530 -110 -100 -303 -253 -310 -247 -9 10 357 420 530 595 159 159 235 218
235 182z"/>
<path d="M1628 2216 c-139 -49 -314 -170 -439 -303 -74 -78 -109 -142 -109
-196 0 -97 151 -88 295 18 30 22 55 48 55 58 0 25 -17 21 -64 -17 -46 -39
-134 -83 -182 -92 -18 -3 -42 -1 -54 6 -94 50 187 339 455 466 95 46 184 57
215 29 57 -52 -4 -221 -224 -614 -77 -137 -96 -190 -67 -179 5 2 108 100 228
218 249 246 366 349 405 357 27 5 68 37 68 53 0 15 -19 22 -40 15 -50 -16
-201 -144 -383 -324 l-198 -196 70 129 c90 164 138 264 167 351 27 76 33 169
14 204 -25 47 -108 53 -212 17z"/>
<path d="M6690 2215 c-139 -30 -276 -91 -393 -177 -70 -52 -157 -143 -157
-165 0 -25 30 -12 62 27 18 23 68 68 112 101 147 112 309 177 462 186 81 5 97
3 136 -16 51 -24 68 -53 68 -114 0 -68 -41 -141 -128 -227 -62 -62 -96 -86
-172 -123 -53 -27 -127 -54 -168 -62 -85 -17 -188 -20 -197 -5 -9 15 91 137
217 263 59 60 108 113 108 118 0 42 -144 -87 -284 -255 -49 -58 -95 -106 -102
-106 -7 0 -27 12 -44 26 -21 19 -34 24 -42 16 -15 -15 6 -49 42 -67 l30 -16
-48 -72 c-88 -129 -119 -211 -87 -223 20 -8 35 11 35 46 0 24 45 106 110 202
21 31 29 36 50 30 36 -10 167 -6 225 8 261 60 490 272 490 455 0 71 -24 113
-81 140 -48 22 -164 28 -244 10z"/>
<path d="M2788 1739 c-134 -131 -311 -222 -433 -223 -57 -1 -60 0 -63 24 -2
15 13 51 38 92 22 37 40 74 40 82 0 22 -32 20 -63 -5 -21 -16 -31 -18 -46 -10
-54 29 -138 2 -249 -81 -112 -83 -95 -181 22 -130 43 19 166 98 233 149 l36
27 -22 -41 c-30 -60 -28 -118 4 -139 47 -31 123 -13 344 83 10 4 7 -4 -7 -24
-24 -34 -28 -58 -12 -68 6 -4 78 39 161 94 132 89 220 134 234 120 2 -3 -3
-35 -11 -72 -9 -38 -13 -79 -10 -93 6 -22 11 -24 64 -24 51 0 116 21 239 76 9
4 10 -4 7 -28 -14 -82 87 -103 246 -53 47 15 116 43 154 62 l68 34 16 -22 c14
-21 20 -21 106 -15 108 8 106 1 -9 -49 -83 -36 -142 -73 -150 -92 -17 -45 49
-57 121 -23 23 12 65 44 94 72 49 48 57 52 208 98 86 26 168 50 181 55 20 6
23 4 18 -10 -4 -9 -2 -26 4 -37 10 -19 17 -20 100 -14 54 4 89 3 89 -3 0 -5
-32 -21 -70 -36 -100 -38 -165 -83 -165 -115 0 -22 5 -25 38 -28 48 -4 124 36
178 96 38 40 50 46 172 83 73 22 140 42 151 45 17 6 17 4 -2 -22 -30 -43 -35
-69 -17 -88 9 -9 24 -16 33 -16 31 1 103 39 213 115 l109 74 -20 -37 c-26 -49
-26 -113 0 -137 30 -27 120 -14 238 35 115 48 232 117 232 136 0 23 -26 16
-93 -26 -105 -66 -232 -114 -302 -115 -57 0 -60 1 -63 25 -2 15 13 51 38 92
22 37 40 74 40 82 0 22 -26 20 -64 -3 -22 -14 -36 -17 -46 -11 -27 17 -91 10
-149 -15 -49 -22 -382 -125 -403 -125 -4 0 -8 7 -8 15 0 22 -40 28 -106 16
-112 -21 -119 -11 -45 60 67 64 170 97 113 36 -29 -30 -28 -49 1 -45 26 4 64
67 54 91 -12 33 -147 7 -171 -32 -13 -21 -63 -40 -236 -91 l-173 -51 -15 22
c-15 22 -35 23 -154 3 -46 -8 -51 10 -14 53 29 34 119 86 142 81 14 -3 13 -7
-5 -30 -24 -30 -27 -48 -8 -48 25 0 59 46 55 76 -3 25 -8 29 -40 32 -43 4 -80
-14 -163 -76 -75 -56 -216 -124 -315 -151 -83 -23 -122 -26 -151 -11 -24 14
-24 36 1 78 18 29 24 32 69 32 61 0 104 29 99 69 -2 19 -10 27 -27 29 -37 6
-61 -4 -136 -53 -114 -75 -252 -135 -314 -135 -22 0 -23 3 -17 43 21 136 20
146 -6 152 -37 9 -123 -27 -232 -100 -54 -36 -100 -64 -102 -62 -5 5 128 150
173 187 42 35 56 70 28 70 -8 0 -51 -36 -97 -81z m2327 -68 c3 -5 -41 -41 -98
-79 -126 -84 -185 -104 -158 -54 35 66 233 169 256 133z"/>
<path d="M3050 1065 c0 -13 239 -15 2090 -15 1851 0 2090 2 2090 15 0 13 -239
15 -2090 15 -1851 0 -2090 -2 -2090 -15z"/>
<path d="M4490 805 l0 -125 49 0 c68 0 76 13 76 127 0 110 -9 123 -82 123
l-43 0 0 -125z"/>
<path d="M4716 908 c-11 -16 -16 -47 -16 -106 0 -75 2 -85 25 -107 28 -29 51
-31 83 -9 20 14 22 23 22 118 0 115 -5 126 -61 126 -28 0 -42 -6 -53 -22z"/>
<path d="M4932 918 c-7 -7 -12 -28 -12 -48 0 -31 7 -43 46 -78 51 -45 56 -77
14 -77 -18 0 -26 6 -28 23 -2 12 -10 22 -18 22 -28 0 -13 -62 19 -80 24 -13
30 -13 55 0 21 13 28 24 30 57 3 38 0 44 -43 79 -32 26 -45 43 -43 58 4 29 40
27 53 -1 5 -13 15 -23 22 -23 18 0 16 46 -3 64 -18 19 -75 21 -92 4z"/>
<path d="M5136 914 c-31 -30 -20 -73 30 -118 49 -46 56 -79 18 -84 -16 -2 -23
4 -28 22 -8 33 -36 35 -36 3 0 -31 19 -55 52 -62 21 -5 33 -1 52 19 41 40 33
72 -35 133 -32 29 -37 38 -28 54 14 27 37 24 45 -7 9 -34 40 -29 36 6 -2 14
-9 31 -14 38 -15 17 -74 15 -92 -4z"/>
<path d="M5680 805 c0 -104 2 -125 15 -125 12 0 15 13 15 55 0 73 23 75 40 4
11 -47 32 -71 47 -55 4 3 -1 29 -10 57 -14 45 -14 53 -1 66 19 19 18 88 -2
107 -9 10 -33 16 -60 16 l-44 0 0 -125z"/>
<path d="M3050 520 c0 -7 703 -10 2090 -10 1387 0 2090 3 2090 10 0 7 -703 10
-2090 10 -1387 0 -2090 -3 -2090 -10z"/>
</g>
</svg>
