<?xml version="1.0" standalone="no"?>
<!DOCTYPE svg PUBLIC "-//W3C//DTD SVG 20010904//EN"
 "http://www.w3.org/TR/2001/REC-SVG-20010904/DTD/svg10.dtd">
<svg version="1.0" xmlns="http://www.w3.org/2000/svg"
 width="1100.000000pt" height="250.000000pt" viewBox="0 0 1100.000000 250.000000"
 preserveAspectRatio="xMidYMid meet">
<metadata>
Created by potrace 1.16, written by Peter Selinger 2001-2019
</metadata>
<g transform="translate(0.000000,250.000000) scale(0.100000,-0.100000)"
fill="#000000" stroke="none">
<path d="M8562 2135 c-128 -87 -533 -512 -833 -875 -285 -346 -392 -518 -332
-537 6 -2 75 57 153 131 78 75 167 155 198 179 62 48 121 81 129 74 2 -3 -7
-38 -22 -79 -53 -147 -4 -194 159 -149 42 12 106 35 143 51 36 17 69 30 73 30
4 0 5 -11 2 -25 -2 -14 1 -32 8 -40 32 -39 124 -3 289 113 52 37 101 71 108
75 7 4 1 -16 -12 -45 -30 -64 -32 -108 -6 -139 17 -21 28 -24 78 -23 65 2 181
38 286 91 l67 33 -31 -56 c-29 -51 -30 -57 -16 -72 23 -22 44 -11 194 110 158
128 243 187 283 194 39 8 37 3 -47 -136 -96 -157 -79 -173 86 -81 59 34 113
61 120 61 8 0 10 -14 5 -49 -5 -42 -3 -52 16 -71 19 -19 30 -22 71 -17 57 7
160 56 281 135 83 54 108 82 72 82 -9 0 -64 -30 -122 -67 -121 -76 -210 -116
-250 -111 -25 3 -27 6 -24 48 5 69 -4 90 -36 90 -30 0 -105 -33 -170 -74 -23
-14 -44 -26 -47 -26 -3 0 13 28 35 63 66 100 84 145 71 175 -11 22 -16 24 -57
19 -52 -5 -112 -43 -254 -156 -52 -42 -115 -92 -140 -111 l-45 -35 35 49 c19
28 63 80 98 117 34 36 62 71 62 77 0 29 -26 19 -80 -31 -112 -104 -430 -238
-495 -209 -43 20 -34 59 42 184 49 80 32 101 -41 52 -32 -22 -43 -25 -57 -15
-10 6 -39 11 -65 11 -38 0 -75 -15 -227 -94 -256 -133 -387 -176 -432 -143
-19 15 -19 16 9 105 16 49 26 97 23 106 -26 67 -161 -12 -376 -219 -105 -100
-106 -99 -9 35 94 131 93 131 183 190 357 237 814 684 936 916 33 64 36 86 13
108 -23 24 -44 20 -102 -19z m73 -32 c-3 -15 -28 -59 -53 -98 -133 -199 -446
-510 -745 -736 l-122 -93 45 54 c246 301 701 783 819 868 54 39 65 40 56 5z
m-65 -993 c17 -11 23 -5 -75 -75 -120 -86 -225 -135 -225 -105 0 33 147 147
228 176 45 16 53 16 72 4z"/>
<path d="M1569 1731 c-221 -82 -518 -322 -598 -482 -38 -76 -39 -112 -5 -146
23 -23 31 -25 88 -21 123 8 343 148 287 182 -5 3 -31 -12 -57 -34 -63 -53
-161 -101 -217 -107 -137 -16 -109 89 72 267 235 234 560 391 641 310 64 -64
-19 -287 -269 -728 -51 -89 -89 -167 -86 -172 16 -26 51 2 205 158 310 315
501 488 551 497 32 6 69 33 69 51 0 41 -60 20 -170 -62 -36 -27 -175 -157
-309 -289 -165 -161 -237 -227 -222 -200 236 410 327 655 280 748 -34 66 -130
76 -260 28z"/>
<path d="M7439 1735 c-153 -29 -322 -104 -454 -202 -81 -60 -185 -167 -185
-189 0 -33 25 -18 102 60 128 129 276 216 464 272 117 35 268 39 328 10 155
-77 60 -328 -188 -496 -68 -46 -190 -97 -275 -115 -96 -20 -244 -21 -239 -1 6
26 164 209 272 315 103 101 124 131 89 131 -22 0 -259 -240 -347 -352 -76 -96
-78 -97 -139 -40 -20 19 -30 23 -39 14 -15 -15 13 -57 52 -77 17 -9 30 -17 30
-19 0 -1 -25 -41 -56 -87 -91 -135 -133 -242 -99 -255 23 -9 36 7 40 49 4 43
22 78 96 188 l58 86 100 -5 c60 -3 126 0 163 8 238 46 472 209 561 389 27 56
32 76 32 141 0 62 -4 81 -23 107 -50 71 -186 98 -343 68z"/>
<path d="M2917 1179 c-50 -49 -122 -108 -158 -130 -128 -77 -332 -149 -380
-134 -48 16 -40 73 25 171 58 86 44 114 -33 67 -39 -25 -49 -27 -59 -16 -7 7
-34 13 -61 13 -67 0 -178 -58 -254 -131 -54 -52 -58 -59 -55 -95 3 -37 5 -39
40 -42 47 -4 120 32 261 131 59 42 107 74 107 72 0 -1 -9 -22 -20 -46 -27 -59
-26 -120 1 -145 44 -40 165 -16 346 67 l81 37 -30 -43 c-32 -45 -32 -75 -1
-75 10 0 72 38 138 85 183 129 326 197 311 148 -19 -62 -36 -158 -31 -174 10
-30 41 -41 93 -33 55 8 167 46 234 80 l47 24 -10 -30 c-13 -36 5 -79 41 -97
65 -33 229 2 408 87 91 44 102 47 102 29 0 -30 40 -40 118 -29 37 5 77 10 89
10 41 0 14 -24 -60 -54 -144 -57 -216 -111 -202 -149 9 -21 45 -28 87 -16 50
13 150 82 182 124 28 36 34 39 337 128 l115 34 -4 -27 c-7 -51 30 -62 162 -46
93 11 85 -6 -26 -54 -126 -54 -177 -86 -184 -117 -9 -36 18 -55 66 -47 51 9
136 62 185 117 45 49 66 58 353 141 l54 15 -30 -34 c-37 -42 -46 -68 -32 -95
26 -48 129 -9 311 120 55 38 99 67 99 64 0 -3 -9 -22 -20 -44 -20 -39 -27
-114 -12 -137 13 -21 66 -35 110 -28 126 19 442 169 442 210 0 24 -26 18 -87
-22 -80 -51 -242 -121 -324 -140 -63 -14 -71 -14 -94 1 -14 9 -25 22 -25 29 1
20 37 94 69 141 54 78 36 104 -39 58 -41 -26 -51 -28 -61 -16 -18 22 -97 17
-157 -11 -30 -14 -146 -52 -258 -85 -112 -34 -211 -63 -218 -66 -10 -4 -16 3
-18 18 -3 21 -8 23 -53 22 -27 0 -77 -2 -109 -5 -40 -3 -60 0 -63 8 -6 18 82
101 130 123 71 33 99 22 57 -20 -23 -23 -26 -50 -5 -50 36 0 78 78 58 109 -24
38 -91 24 -180 -35 -58 -39 -100 -55 -278 -109 -208 -62 -210 -62 -220 -41 -9
17 -20 21 -60 21 -28 -1 -76 -4 -107 -9 -50 -7 -58 -6 -58 8 0 43 134 146 190
146 27 0 25 -12 -5 -40 -30 -28 -32 -50 -6 -50 22 0 59 42 67 77 21 84 -113
63 -231 -36 -102 -86 -382 -201 -490 -201 -27 0 -51 7 -66 19 l-23 18 25 49
c24 45 28 49 65 50 21 1 49 2 61 3 32 2 85 50 81 75 -4 29 -43 46 -80 35 -16
-4 -71 -35 -121 -67 -91 -58 -145 -86 -236 -122 -58 -23 -137 -35 -144 -23 -3
5 1 38 9 74 8 35 14 82 12 104 -3 37 -5 40 -36 43 -44 4 -137 -40 -266 -126
-55 -37 -108 -71 -116 -76 -29 -18 117 148 187 214 40 38 73 73 73 79 0 32
-48 3 -133 -80z m-639 -68 c10 -6 4 -16 -25 -38 -106 -82 -227 -153 -263 -153
-20 0 -21 1 -5 28 25 39 100 98 179 137 71 36 91 41 114 26z m3330 0 c10 -6 4
-16 -25 -38 -139 -108 -283 -181 -283 -143 0 17 77 89 133 124 88 55 148 75
175 57z"/>
</g>
</svg>
