<?xml version="1.0" standalone="no"?>
<!DOCTYPE svg PUBLIC "-//W3C//DTD SVG 20010904//EN"
 "http://www.w3.org/TR/2001/REC-SVG-20010904/DTD/svg10.dtd">
<svg version="1.0" xmlns="http://www.w3.org/2000/svg"
 width="973.000000pt" height="342.000000pt" viewBox="0 0 973.000000 342.000000"
 preserveAspectRatio="xMidYMid meet">
<metadata>
Created by potrace 1.16, written by Peter Selinger 2001-2019
</metadata>
<g transform="translate(0.000000,342.000000) scale(0.100000,-0.100000)"
fill="#000000" stroke="none">
<path d="M2715 2910 c-89 -64 -299 -127 -515 -155 -63 -8 -236 -26 -385 -40
-148 -14 -342 -32 -430 -40 -169 -16 -286 -40 -394 -82 -185 -71 -321 -163
-421 -286 -77 -94 -197 -340 -188 -383 2 -12 32 39 76 131 131 269 248 386
491 490 165 70 276 93 596 120 306 26 389 34 475 45 47 5 126 15 175 20 123
15 308 57 379 87 32 13 60 22 62 20 2 -2 -26 -33 -62 -68 -228 -219 -338 -348
-624 -723 -30 -40 -102 -134 -160 -209 -108 -140 -163 -219 -274 -392 -35 -55
-84 -131 -109 -170 -24 -38 -52 -86 -62 -105 -10 -19 -23 -42 -30 -50 -15 -17
-160 -274 -232 -409 -25 -47 -58 -106 -74 -131 -15 -25 -48 -88 -73 -140 -75
-161 -95 -240 -58 -240 11 0 27 22 46 66 46 103 215 374 439 704 83 123 393
525 490 636 291 334 656 645 1076 918 133 86 359 200 436 221 101 26 179 -1
177 -63 -2 -93 -113 -227 -688 -837 -160 -171 -299 -326 -340 -382 -16 -21
-42 -54 -59 -73 -59 -67 -223 -326 -250 -393 -27 -68 -27 -101 -1 -95 8 2 41
39 73 83 82 111 292 361 399 476 101 108 176 179 314 294 234 196 367 290 511
360 138 66 232 91 313 81 50 -7 60 -12 77 -39 26 -44 24 -67 -15 -152 -46
-100 -94 -165 -244 -330 -307 -337 -482 -618 -547 -879 -20 -79 -16 -242 6
-310 32 -94 137 -148 254 -128 89 15 168 49 297 130 179 112 347 252 615 515
l152 149 -16 -58 c-10 -34 -17 -99 -17 -154 -1 -102 19 -167 67 -218 59 -64
196 -89 317 -58 83 21 217 79 300 128 119 71 324 245 557 472 l112 109 -35
-89 c-62 -157 -84 -307 -48 -321 30 -11 108 69 242 247 31 41 61 80 67 86 5 6
51 64 100 129 383 501 582 695 742 721 56 9 75 -12 61 -63 -12 -45 -7 -35
-180 -373 -202 -397 -268 -582 -268 -753 0 -90 13 -137 46 -171 22 -21 36 -26
79 -26 137 0 277 85 529 323 124 117 322 325 490 515 55 61 101 111 102 109 1
-1 -6 -33 -16 -72 -34 -127 -20 -196 49 -242 47 -31 76 -29 161 13 55 28 97
61 180 143 101 100 295 307 423 451 l57 65 -78 -155 c-118 -236 -160 -389
-142 -522 34 -245 261 -220 615 67 162 131 666 673 636 683 -7 2 -19 -2 -25
-9 -7 -8 -75 -84 -152 -169 -210 -234 -338 -363 -454 -460 -250 -208 -436
-291 -514 -229 -45 36 -59 75 -53 148 7 83 31 151 106 304 98 199 163 307 313
524 58 84 116 173 129 199 22 46 22 47 3 61 -34 25 -72 -5 -170 -132 -130
-169 -479 -566 -688 -782 -170 -177 -270 -228 -325 -169 -20 22 -23 33 -19 83
8 106 125 342 266 541 88 123 122 174 122 183 0 18 -31 37 -52 32 -38 -10 -57
-27 -120 -109 -87 -114 -146 -207 -189 -301 -26 -56 -58 -104 -101 -150 -35
-37 -83 -90 -108 -118 -41 -47 -294 -316 -370 -395 -43 -44 -226 -209 -297
-268 -28 -24 -85 -61 -125 -83 -159 -87 -258 -72 -258 41 0 67 74 314 110 365
20 29 320 614 320 625 0 6 8 24 19 38 27 40 61 146 61 195 0 66 -32 99 -102
105 -41 3 -67 -1 -100 -16 -89 -39 -195 -118 -303 -227 -125 -125 -184 -197
-455 -555 -213 -282 -259 -339 -310 -386 -33 -31 -35 -31 -38 -12 -9 50 104
298 201 443 22 33 84 119 138 191 76 101 99 139 99 163 0 26 -4 31 -23 31 -12
0 -33 -7 -45 -16 -46 -32 -200 -243 -247 -339 -27 -54 -149 -179 -337 -347
-292 -260 -403 -339 -589 -414 -123 -50 -230 -58 -315 -24 -67 27 -89 55 -104
126 -15 73 9 170 82 324 l55 115 109 34 c190 61 351 158 477 290 78 82 117
148 117 199 0 85 -128 119 -253 68 -106 -44 -170 -90 -292 -211 -126 -125
-200 -225 -276 -372 -38 -75 -58 -98 -223 -256 -328 -314 -520 -468 -711 -568
-115 -60 -186 -77 -251 -59 -173 49 -188 236 -44 535 106 218 238 408 460 660
186 212 231 277 269 394 24 75 26 119 7 164 -24 56 -55 77 -129 84 -83 7 -166
-8 -282 -54 -113 -44 -200 -95 -340 -200 -111 -83 -121 -90 -210 -165 l-50
-42 56 59 c31 33 83 87 115 120 279 285 446 495 494 621 22 61 25 101 9 157
-9 32 -18 42 -56 59 -101 45 -201 19 -471 -121 -231 -120 -656 -431 -911 -666
-225 -208 -426 -427 -586 -641 -96 -128 -141 -188 -158 -208 -23 -28 44 84 96
161 23 33 83 123 132 199 50 77 174 251 277 389 331 444 438 573 659 794 117
117 199 215 199 238 0 22 -53 13 -95 -17z m2516 -1111 c14 -14 18 -27 13 -42
-38 -124 -202 -272 -418 -379 -74 -37 -186 -78 -214 -78 -28 0 168 251 263
338 118 108 243 181 313 182 12 0 31 -9 43 -21z"/>
</g>
</svg>
